<svg width="36" height="57" viewBox="0 0 36 57" fill="none" xmlns="http://www.w3.org/2000/svg">
<g clip-path="url(#clip0_342_9182)">
<path d="M1.34681 40.4366C-0.0642246 39.0004 -0.0642215 36.6718 1.34681 35.2355L15.392 20.9389C16.803 19.5026 19.0907 19.5026 20.5018 20.9389L25.1669 25.6875C26.578 27.1239 26.578 29.4525 25.1669 30.8887L12.1682 44.1201C11.4906 44.8098 11.1099 45.7453 11.1099 46.7206V50.3746L1.34681 40.4366Z" fill="#7858F9"/>
<path d="M11.1051 50.3964C9.69402 48.9601 9.69402 46.6315 11.1051 45.1953L25.1502 30.8986C26.5611 29.4624 28.8491 29.4624 30.26 30.8986L34.925 35.6474C36.3363 37.0836 36.3363 39.4122 34.925 40.8484L20.88 55.1451C19.4689 56.5813 17.1812 56.5813 15.7702 55.1451L11.1051 50.3964Z" fill="#5240FF"/>
<path d="M1.05828 20.8996C-0.352758 19.4633 -0.35276 17.1346 1.05828 15.6984L15.1984 1.30522C16.6094 -0.131069 18.8971 -0.131069 20.3082 1.30522L24.9665 6.04693C26.3776 7.4832 26.3776 9.8119 24.9665 11.2482L10.5825 25.8896C10.5825 25.8896 9.76492 26.8522 9.76492 28.242C9.76492 29.6318 10.5825 30.5942 10.5825 30.5942L1.05828 20.8996Z" fill="#5AC1FB"/>
<path d="M10.7873 30.8833C9.37624 29.4471 9.37624 27.1182 10.7873 25.682L25.1642 11.0478C25.1642 11.0478 25.995 10.0708 25.995 8.68829C25.995 7.30574 25.1642 6.32878 25.1642 6.32878L34.6956 16.0306C36.1066 17.4669 36.1066 19.7956 34.6956 21.2319L21.5161 34.6471C20.8385 35.3367 20.4578 36.2723 20.4578 37.2479V40.7268L10.7873 30.8833Z" fill="#398FFD"/>
<path d="M20.4255 40.7123C19.0721 39.3346 19.0721 37.101 20.4255 35.7236L27.7113 28.3075L34.9237 35.649C34.9237 35.649 33.6617 34.6739 32.4841 34.6739C31.3068 34.6739 29.86 36.0976 29.86 36.0976L25.3265 40.7123C23.9732 42.09 21.7789 42.09 20.4255 40.7123Z" fill="#341ED9"/>
</g>
<defs>
<clipPath id="clip0_342_9182">
<rect width="36" height="56" fill="white" transform="translate(0 0.228027)"/>
</clipPath>
</defs>
</svg>
